<!-- Created with Inkscape (http://www.inkscape.org/) -->
<svg xmlns:rdf="http://www.w3.org/1999/02/22-rdf-syntax-ns#" xmlns="http://www.w3.org/2000/svg" height="100%" width="100%" version="1.1" xmlns:cc="http://creativecommons.org/ns#" xmlns:xlink="http://www.w3.org/1999/xlink" viewBox="0 0 64 64" xmlns:dc="http://purl.org/dc/elements/1.1/">
 <defs>
  <linearGradient id="linearGradient4777" y2="30.797" gradientUnits="userSpaceOnUse" y1="10.658" gradientTransform="matrix(2.0312104,0,0,2.0287366,-0.51117134,-0.43565267)" x2="5.1748" x1="5.1748">
   <stop stop-color="#000" offset="0"/>
   <stop stop-color="#888a85" offset="1"/>
  </linearGradient>
  <linearGradient id="linearGradient3903" y2="64" gradientUnits="userSpaceOnUse" x2="64" x1="25">
   <stop stop-color="#000" stop-opacity="0" offset="0"/>
   <stop stop-color="#000" stop-opacity="0.3125" offset="1"/>
  </linearGradient>
  <linearGradient id="linearGradient3116" y2="107.54" gradientUnits="userSpaceOnUse" x2="134.43" gradientTransform="matrix(1,0,0,0.90816355,-72.433606,-38.970717)" y1="86.66" x1="134.43">
   <stop stop-color="#e6e6e6" offset="0"/>
   <stop stop-color="#cbcbcb" offset="1"/>
  </linearGradient>
 </defs>
 <metadata>
  <rdf:RDF>
   <cc:Work rdf:about="">
    <dc:format>image/svg+xml</dc:format>
    <dc:type rdf:resource="http://purl.org/dc/dcmitype/StillImage"/>
    <dc:title/>
   </cc:Work>
  </rdf:RDF>
 </metadata>
 <rect stroke-linejoin="round" stroke-dasharray="none" ry="4.8146" height="61" width="61" stroke="url(#linearGradient3903)" stroke-miterlimit="4" y="1.4998" x="1.4998" stroke-width="2" fill="none"/>
 <path fill="#ededed" d="m62,29,0,27c0,2.6573-3.3427,6-6,6h-48.004c-2.6573,0-5.9958-3.338-5.9958-5.996v-27.004z"/>
 <path fill="#000" d="M8.0112,2,56,2c3.3217,0,6,2.6783,6,6v22l-52-0.0302c-5.9958-0.0035-6.0014,6.001-8,8l0.0151-29.974c0.00168-3.3216,2.6742-5.9957,5.9958-5.9957z"/>
 <g fill="#FFF" transform="matrix(1.1265063,0,0,1.1265009,6.1023681,7.000015)">
  <g fill="#FFF" transform="translate(-542,-175.99999)">
   <g fill-rule="nonzero" fill="#FFF" transform="matrix(0.14909103,0,0,0.14909103,565.15384,193.1857)">
    <path d="m-63.884-115.27c-22.296,0-26.478,31.756-13.935,31.756,12.541,0,36.232-31.756,13.935-31.756z"/>
    <path d="m-100.91-87.449c6.6782,0.40781,14.005-25.486,1.4536-23.857-12.547,1.6285-8.1345,23.449-1.4536,23.857z"/>
    <path d="m-131.51-71.359c4.7497-2.0907,0.61172-22.54-7.4648-16.963-8.0729,5.578,2.7151,19.053,7.4648,16.963z"/>
    <path d="m-118.13-82.063c5.6541-1.1528,5.964-24.346-4.1189-20.185-10.085,4.1615-1.5307,21.339,4.1189,20.185z"/>
    <path d="m-88.604-30.161c1.0032,7.6614-5.6206,11.445-12.108,6.506-20.651-15.723,34.192-23.565,30.577-45.046-3.0006-17.83-57.706-12.34-63.936,15.557-4.2168,18.87,17.357,45.048,39.869,45.048,11.074,0,23.848-9.9996,26.238-22.667,1.8252-9.6597-21.477-5.7891-20.64,0.60266z"/>
   </g>
  </g>
 </g>
 <path style="enable-background:new;" fill="#f2f2f2" d="M16.812,37.531c-1.524,0-2.874,0.698-3.312,2.781l-2.469,21.188h45.657c2.67,0,4.812-2.142,4.812-4.812v-19.157h-44.688z"/>
 <path d="m16.812,39.156c-1.5242,0-2.8744,0.59432-3.3125,2.3438l-2.75,20h45.938c2.6705,0,4.8125-2.142,4.8125-4.8125v-17.531h-44.688z" style="enable-background:new;" fill="url(#linearGradient3116)"/>
 <path stroke-linejoin="round" style="enable-background:new;" d="m16.812,37.5c-1.5246,0-2.8744,0.69478-3.3125,2.7812l-2.469,21.219h45.656c2.6705,0,4.8125-2.142,4.8125-4.8125v-19.188h-44.688z" stroke-dashoffset="0" stroke="#a7aba7" stroke-linecap="round" stroke-miterlimit="4" stroke-dasharray="none" stroke-width="1" fill="none"/>
 <rect stroke-linejoin="round" stroke-dasharray="none" ry="4.8203" height="59" width="59" stroke="url(#linearGradient4777)" stroke-miterlimit="4" y="2.5" x="2.5" stroke-width="1" fill="none"/>
</svg>
