<!-- Created with Inkscape (http://www.inkscape.org/) -->
<svg xmlns:rdf="http://www.w3.org/1999/02/22-rdf-syntax-ns#" xmlns="http://www.w3.org/2000/svg" height="100%" width="100%" version="1.1" xmlns:cc="http://creativecommons.org/ns#" xmlns:xlink="http://www.w3.org/1999/xlink" viewBox="0 0 48 48" xmlns:dc="http://purl.org/dc/elements/1.1/">
 <defs>
  <linearGradient id="linearGradient4785" x1="9.9987" gradientUnits="userSpaceOnUse" y1="7.9941" gradientTransform="matrix(1.0009383,0,0,0.99902554,-0.07913821,-0.00513424)" x2="9.9987" y2="47.991">
   <stop stop-color="#000" offset="0"/>
   <stop stop-color="#888a85" offset="1"/>
  </linearGradient>
  <linearGradient id="linearGradient3896" y2="48" gradientUnits="userSpaceOnUse" x2="35" x1="15">
   <stop stop-color="#000" stop-opacity="0" offset="0"/>
   <stop stop-color="#000" stop-opacity="0.3125" offset="1"/>
  </linearGradient>
  <linearGradient id="linearGradient3146" y2="107.54" gradientUnits="userSpaceOnUse" x2="134.43" gradientTransform="matrix(1,0,0,0.83962264,-72.433622,-42.237142)" y1="86.66" x1="134.43">
   <stop stop-color="#e6e6e6" offset="0"/>
   <stop stop-color="#cbcbcb" offset="1"/>
  </linearGradient>
 </defs>
 <metadata>
  <rdf:RDF>
   <cc:Work rdf:about="">
    <dc:format>image/svg+xml</dc:format>
    <dc:type rdf:resource="http://purl.org/dc/dcmitype/StillImage"/>
    <dc:title/>
   </cc:Work>
  </rdf:RDF>
 </metadata>
 <rect stroke-linejoin="round" stroke-dasharray="none" ry="2.4478" height="44.998" width="44.949" stroke="url(#linearGradient3896)" stroke-miterlimit="4" y="1.5089" x="1.5216" stroke-width="2" fill="none"/>
 <path fill="#ededed" d="m46,21,0,22c0,1.662-1.338,3-3,3h-38c-1.662,0-3-1.338-3-3v-22z"/>
 <path fill="#000" d="m5,2,38,0c1,0,3,2,3,3v17h-40c-3,0-3,3-4,4v-21c0-1.662,1.338-3,3-3z"/>
 <g fill="#FFF" transform="matrix(0.87617348,0,0,0.87617348,5.8573687,5.0000114)">
  <g fill="#FFF" transform="translate(-542,-175.99999)">
   <g fill-rule="nonzero" fill="#FFF" transform="matrix(0.14909103,0,0,0.14909103,565.15384,193.1857)">
    <path d="m-63.884-115.27c-22.296,0-26.478,31.756-13.935,31.756,12.541,0,36.232-31.756,13.935-31.756z"/>
    <path d="m-100.91-87.449c6.6782,0.40781,14.005-25.486,1.4536-23.857-12.547,1.6285-8.1345,23.449-1.4536,23.857z"/>
    <path d="m-131.51-71.359c4.7497-2.0907,0.61172-22.54-7.4648-16.963-8.0729,5.578,2.7151,19.053,7.4648,16.963z"/>
    <path d="m-118.13-82.063c5.6541-1.1528,5.964-24.346-4.1189-20.185-10.085,4.1615-1.5307,21.339,4.1189,20.185z"/>
    <path d="m-88.604-30.161c1.0032,7.6614-5.6206,11.445-12.108,6.506-20.651-15.723,34.192-23.565,30.577-45.046-3.0006-17.83-57.706-12.34-63.936,15.557-4.2168,18.87,17.357,45.048,39.869,45.048,11.074,0,23.848-9.9996,26.238-22.667,1.8252-9.6597-21.477-5.7891-20.64,0.60266z"/>
   </g>
  </g>
 </g>
 <g mask="none" transform="translate(-72.433622,-56.035231)" clip-path="none">
  <path style="enable-background:new;" fill="#f2f2f2" d="M16.812,28.5c-1.523,0-2.874,0.636-3.312,2.562l-1.812,14.438h31.374c1.357,0,2.438-1.081,2.438-2.438v-14.562h-28.688z" transform="translate(72.433622,56.035231)"/>
  <path style="enable-background:new;" fill="url(#linearGradient3146)" d="M16.812,30c-1.523,0-2.874,0.539-3.312,2.156l-2,13.344h31.562c1.357,0,2.438-1.081,2.438-2.438v-13.062h-28.688z" transform="translate(72.433622,56.035231)"/>
  <path stroke-linejoin="round" style="enable-background:new;" d="M16.812,28.5c-1.523,0-2.874,0.636-3.312,2.562l-1.812,14.438h31.374c1.357,0,2.438-1.081,2.438-2.438v-14.562h-28.688z" stroke-dashoffset="0" transform="translate(72.433622,56.035231)" stroke="#a7aba7" stroke-linecap="round" stroke-miterlimit="4" stroke-dasharray="none" stroke-width="0.99999994" fill="none"/>
 </g>
 <rect stroke-linejoin="round" stroke-dasharray="none" ry="2.4478" height="43" width="43" stroke="url(#linearGradient4785)" stroke-miterlimit="4" y="2.5002" x="2.5002" stroke-width="1" fill="none"/>
</svg>
